<svg xmlns="http://www.w3.org/2000/svg" xmlns:xlink="http://www.w3.org/1999/xlink" width="65" height="80" viewBox="0 0 65 80"><defs><style>.a{fill:none;}.b{clip-path:url(#a);}.c{fill:#ccd1eb;}</style><clipPath id="a"><rect class="a" width="65" height="80"/></clipPath></defs><g class="b"><g transform="translate(-1426 -1306)"><circle class="c" cx="2" cy="2" r="2" transform="translate(1426 1306)"/></g><g transform="translate(-1411 -1306)"><circle class="c" cx="2" cy="2" r="2" transform="translate(1426 1306)"/></g><g transform="translate(-1396 -1306)"><circle class="c" cx="2" cy="2" r="2" transform="translate(1426 1306)"/></g><g transform="translate(-1381 -1306)"><circle class="c" cx="2" cy="2" r="2" transform="translate(1426 1306)"/></g><g transform="translate(-1366 -1306)"><circle class="c" cx="2" cy="2" r="2" transform="translate(1426 1306)"/></g><g transform="translate(-1426 -1291)"><circle class="c" cx="2" cy="2" r="2" transform="translate(1426 1306)"/></g><g transform="translate(-1411 -1291)"><circle class="c" cx="2" cy="2" r="2" transform="translate(1426 1306)"/></g><g transform="translate(-1396 -1291)"><circle class="c" cx="2" cy="2" r="2" transform="translate(1426 1306)"/></g><g transform="translate(-1381 -1291)"><circle class="c" cx="2" cy="2" r="2" transform="translate(1426 1306)"/></g><g transform="translate(-1366 -1291)"><circle class="c" cx="2" cy="2" r="2" transform="translate(1426 1306)"/></g><g transform="translate(-1426 -1276)"><circle class="c" cx="2" cy="2" r="2" transform="translate(1426 1306)"/></g><g transform="translate(-1411 -1276)"><circle class="c" cx="2" cy="2" r="2" transform="translate(1426 1306)"/></g><g transform="translate(-1396 -1276)"><circle class="c" cx="2" cy="2" r="2" transform="translate(1426 1306)"/></g><g transform="translate(-1381 -1276)"><circle class="c" cx="2" cy="2" r="2" transform="translate(1426 1306)"/></g><g transform="translate(-1366 -1276)"><circle class="c" cx="2" cy="2" r="2" transform="translate(1426 1306)"/></g><g transform="translate(-1426 -1261)"><circle class="c" cx="2" cy="2" r="2" transform="translate(1426 1306)"/></g><g transform="translate(-1411 -1261)"><circle class="c" cx="2" cy="2" r="2" transform="translate(1426 1306)"/></g><g transform="translate(-1396 -1261)"><circle class="c" cx="2" cy="2" r="2" transform="translate(1426 1306)"/></g><g transform="translate(-1381 -1261)"><circle class="c" cx="2" cy="2" r="2" transform="translate(1426 1306)"/></g><g transform="translate(-1366 -1261)"><circle class="c" cx="2" cy="2" r="2" transform="translate(1426 1306)"/></g><g transform="translate(-1426 -1246)"><circle class="c" cx="2" cy="2" r="2" transform="translate(1426 1306)"/></g><g transform="translate(-1411 -1246)"><circle class="c" cx="2" cy="2" r="2" transform="translate(1426 1306)"/></g><g transform="translate(-1396 -1246)"><circle class="c" cx="2" cy="2" r="2" transform="translate(1426 1306)"/></g><g transform="translate(-1381 -1246)"><circle class="c" cx="2" cy="2" r="2" transform="translate(1426 1306)"/></g><g transform="translate(-1366 -1246)"><circle class="c" cx="2" cy="2" r="2" transform="translate(1426 1306)"/></g><g transform="translate(-1426 -1231)"><circle class="c" cx="2" cy="2" r="2" transform="translate(1426 1306)"/></g><g transform="translate(-1411 -1231)"><circle class="c" cx="2" cy="2" r="2" transform="translate(1426 1306)"/></g><g transform="translate(-1396 -1231)"><circle class="c" cx="2" cy="2" r="2" transform="translate(1426 1306)"/></g><g transform="translate(-1381 -1231)"><circle class="c" cx="2" cy="2" r="2" transform="translate(1426 1306)"/></g><g transform="translate(-1366 -1231)"><circle class="c" cx="2" cy="2" r="2" transform="translate(1426 1306)"/></g></g></svg>